<?xml version="1.0" encoding="UTF-8" standalone="no"?>
<svg width="234px" height="30px" viewBox="0 0 234 30" version="1.1" xmlns="http://www.w3.org/2000/svg" xmlns:xlink="http://www.w3.org/1999/xlink">
    <!-- Generator: Sketch 46.2 (44496) - http://www.bohemiancoding.com/sketch -->
    <title>Identifi_Admin Tools</title>
    <desc>Created with Sketch.</desc>
    <defs></defs>
    <g id="Page-1" stroke="none" stroke-width="1" fill="none" fill-rule="evenodd">
        <g id="Identifi_Admin-Tools" fill="#FFFFFF">
            <g id="Group">
                <polygon id="Fill-4" points="105 30 106 30 106 0 105 0"></polygon>
                <path d="M71.0010725,10.1610186 C70.9881453,10.0037654 71.0945463,9.80158274 71.1870257,9.6790478 C71.3650236,9.44214691 71.670305,9.39925968 71.9377991,9.32675984 C72.4519048,9.18686579 72.976949,9.0959857 73.5000044,9 C74.0230597,9.0959857 74.5481039,9.17154892 75.0612153,9.31144298 C75.3297038,9.38496394 75.6349851,9.44418916 75.8129831,9.68211117 C75.904468,9.80362499 76.0118634,10.0037654 75.9989362,10.1610186 L75.478864,25 L73.5000044,25 L71.5211447,25 L71.0010725,10.1610186 Z" id="Fill-5"></path>
                <path d="M76,5.5 C76,4.11951118 74.8812927,3 73.4994821,3 C72.1197431,3 71,4.11951118 71,5.5 C71,6.88048882 72.1197431,8 73.4994821,8 C74.8812927,8 76,6.88048882 76,5.5" id="Fill-7"></path>
                <polygon id="Fill-9" points="0 25 4 25 4 5 0 5"></polygon>
                <path d="M18,16.7314275 L18,17.1496059 C18,14.6444527 16.554,12.9844705 14.515,12.9844705 C12.475,12.9844705 11,14.6170312 11,17.1496059 L11,17.2054283 C11,19.7105815 12.475,21.3705638 14.515,21.3705638 C16.554,21.3705638 18,19.7105815 18,17.2054283 M6,16.7314275 L6,17.1496059 C6,12.1128573 9.457,9.35503428 13.106,9.35503428 C15.433,9.35503428 17,10.3960733 18,11.6065383 L18,4 L23,4 L23,24.5661521 L18,24.5661521 L18,22.5516486 C17,23.958961 15.376,25 13.106,25 C9.515,25 6,22.2421769 6,17.2054283" id="Fill-11"></path>
                <path d="M34.9300959,15.5185555 C34.6791746,13.522672 33.5660138,12.2502963 31.7843752,12.2502963 C30.0308321,12.2502963 28.8895758,13.522672 28.5553369,15.5185555 L34.9300959,15.5185555 Z M24,17.514439 L24,16.999501 C24,12.6115512 27.2377575,9 31.5799566,9 C36.562538,9 38.9477442,12.9967567 38.9477442,17.3547683 C38.9477442,17.6980603 39.0223425,18.5123807 38.9932782,18.5123807 L28.6115278,18.5123807 C29.0290842,20.5082642 30.3650709,21.5121936 32.2581225,21.5121936 C33.6774267,21.5121936 34.70727,21.0481507 35.8766217,19.929458 L38.2986426,22.1349092 C36.906465,23.9132414 34.6985507,25 31.9984818,25 C27.5158055,25 24,21.7596832 24,17.0563837 L24,17.514439 Z" id="Fill-12"></path>
                <path d="M42,9.54802987 L46,9.54802987 L46,11.5454545 C47,10.2134947 48.428,9 50.641,9 C53.945,9 56,11.2487767 56,14.890291 L56,25 L51,25 L51,16.309812 C51,14.1795004 50.21,13.0844708 48.542,13.0844708 C46.876,13.0844708 46,14.1795004 46,16.309812 L46,25 L42,25 L42,9.54802987 Z" id="Fill-13"></path>
                <path d="M60,20.6793716 L60,12.8503734 L58,12.8503734 L58,9.9144991 L60,9.9144991 L60,6 L64,6 L64,9.9144991 L68,9.9144991 L68,12.8503734 L64,12.8503734 L64,19.7692506 C64,20.7537471 64.65,21.231316 65.626,21.231316 C66.431,21.231316 67,21.0336338 68,20.6969869 L68,24.1270667 C67,24.6613958 65.982,25 64.518,25 C61.844,25 60,23.9597219 60,20.4728818" id="Fill-14"></path>
                <path d="M80,13.011988 L78,13.011988 L78,10.014985 L80,10.014985 L80,8.93806194 C80,7.24475524 80.238,6.00999001 81.042,5.20679321 C81.847,4.4025974 82.686,4 84.236,4 C85.615,4 87,4.17282717 87,4.43156843 L87,8.04795205 C87,7.81918082 86.046,7.67432567 85.299,7.67432567 C84.293,7.67432567 84,8.19180819 84,9.33966034 L84,10.014985 L87,10.014985 L87,13.011988 L84,13.011988 L84,25 L80,25 L80,13.011988 Z" id="Fill-15"></path>
                <path d="M95,5.5 C95,4.11951118 93.8802569,3 92.4994821,3 C91.1197431,3 90,4.11951118 90,5.5 C90,6.88048882 91.1197431,8 92.4994821,8 C93.8802569,8 95,6.88048882 95,5.5" id="Fill-16"></path>
                <path d="M90.5211447,25 L92.5000044,25 L94.478864,25 L94.9989362,10.1610186 C95.0118634,10.0037654 94.904468,9.80362499 94.8129831,9.68211117 C94.6349851,9.44418916 94.3297038,9.38496394 94.0612153,9.31144298 C93.5481039,9.17154892 93.0230597,9.0959857 92.5000044,9 C91.976949,9.0959857 91.4519048,9.18686579 90.9377991,9.32675984 C90.670305,9.39925968 90.3650236,9.44214691 90.1870257,9.6790478 C90.0945463,9.80158274 89.9881453,10.0037654 90.0010725,10.1610186 L90.5211447,25 Z" id="Fill-17"></path>
                <path d="M116.48,22 L121.408,10.72 L123.232,10.72 L128.16,22 L126.08,22 L124.944,19.296 L119.648,19.296 L118.496,22 L116.48,22 Z M120.368,17.552 L124.224,17.552 L122.288,13.072 L120.368,17.552 Z M130.08,22 L130.08,10.8 L134.256,10.8 C137.776,10.8 140.208,13.216 140.208,16.368 L140.208,16.4 C140.208,19.552 137.776,22 134.256,22 L130.08,22 Z M134.256,12.592 L132.048,12.592 L132.048,20.208 L134.256,20.208 C136.608,20.208 138.144,18.624 138.144,16.432 L138.144,16.4 C138.144,14.208 136.608,12.592 134.256,12.592 Z M142.592,22 L144.528,22 L144.528,14 L148.032,19.248 L148.096,19.248 L151.632,13.968 L151.632,22 L153.6,22 L153.6,10.8 L151.504,10.8 L148.096,16.096 L144.688,10.8 L142.592,10.8 L142.592,22 Z M156.592,22 L158.56,22 L158.56,10.8 L156.592,10.8 L156.592,22 Z M161.552,22 L163.488,22 L163.488,14.032 L169.664,22 L171.312,22 L171.312,10.8 L169.376,10.8 L169.376,18.544 L163.376,10.8 L161.552,10.8 L161.552,22 Z M181.744,22 L183.728,22 L183.728,12.624 L187.28,12.624 L187.28,10.8 L178.192,10.8 L178.192,12.624 L181.744,12.624 L181.744,22 Z M194.096,22.192 C190.656,22.192 188.256,19.584 188.256,16.432 L188.256,16.4 C188.256,13.248 190.688,10.608 194.128,10.608 C197.568,10.608 199.968,13.216 199.968,16.368 L199.968,16.4 C199.968,19.552 197.536,22.192 194.096,22.192 Z M194.128,20.368 C196.352,20.368 197.904,18.608 197.904,16.432 L197.904,16.4 C197.904,14.224 196.32,12.416 194.096,12.416 C191.872,12.416 190.32,14.192 190.32,16.368 L190.32,16.4 C190.32,18.576 191.904,20.368 194.128,20.368 Z M207.696,22.192 C204.256,22.192 201.856,19.584 201.856,16.432 L201.856,16.4 C201.856,13.248 204.288,10.608 207.728,10.608 C211.168,10.608 213.568,13.216 213.568,16.368 L213.568,16.4 C213.568,19.552 211.136,22.192 207.696,22.192 Z M207.728,20.368 C209.952,20.368 211.504,18.608 211.504,16.432 L211.504,16.4 C211.504,14.224 209.92,12.416 207.696,12.416 C205.472,12.416 203.92,14.192 203.92,16.368 L203.92,16.4 C203.92,18.576 205.504,20.368 207.728,20.368 Z M215.952,22 L223.808,22 L223.808,20.208 L217.92,20.208 L217.92,10.8 L215.952,10.8 L215.952,22 Z M229.776,22.16 C232.128,22.16 233.776,20.912 233.776,18.816 L233.776,18.784 C233.776,16.928 232.56,16.08 230.192,15.504 C228.032,14.992 227.52,14.608 227.52,13.744 L227.52,13.712 C227.52,12.976 228.192,12.384 229.344,12.384 C230.368,12.384 231.376,12.784 232.384,13.536 L233.44,12.048 C232.304,11.136 231.008,10.64 229.376,10.64 C227.152,10.64 225.552,11.968 225.552,13.888 L225.552,13.92 C225.552,15.984 226.896,16.688 229.28,17.264 C231.36,17.744 231.808,18.176 231.808,18.976 L231.808,19.008 C231.808,19.84 231.04,20.416 229.824,20.416 C228.448,20.416 227.36,19.888 226.288,18.96 L225.104,20.368 C226.448,21.568 228.064,22.16 229.776,22.16 Z" id="ADMIN-TOOLS"></path>
            </g>
        </g>
    </g>
</svg>